<?xml version="1.0" standalone="no"?>
<!DOCTYPE svg PUBLIC "-//W3C//DTD SVG 20010904//EN"
 "http://www.w3.org/TR/2001/REC-SVG-20010904/DTD/svg10.dtd">
<svg version="1.0" xmlns="http://www.w3.org/2000/svg"
 width="480.000000pt" height="480.000000pt" viewBox="0 0 480.000000 480.000000"
 preserveAspectRatio="xMidYMid meet">
<metadata>
Created by potrace 1.14, written by Peter Selinger 2001-2017
</metadata>
<g transform="translate(0.000000,480.000000) scale(0.100000,-0.100000)"
fill="#000000" stroke="none">
<path d="M2134 4758 c-2 -4 -12 -6 -22 -6 -16 1 -38 -3 -87 -16 -11 -3 -36
-11 -55 -19 -19 -8 -50 -20 -67 -26 -18 -7 -33 -18 -33 -24 0 -6 -3 -7 -6 -4
-10 10 -94 -52 -160 -119 -71 -73 -133 -172 -140 -223 -7 -65 -10 -70 -47 -96
-52 -34 -114 -102 -138 -150 -61 -119 -100 -296 -104 -470 -3 -147 11 -244 55
-372 l27 -81 -25 -7 c-37 -9 -106 -86 -120 -132 -13 -47 -15 -334 -2 -384 15
-55 64 -111 121 -136 35 -15 37 -18 43 -77 8 -73 50 -225 77 -278 11 -21 17
-38 14 -38 -13 0 116 -186 173 -248 62 -70 195 -167 262 -192 45 -17 74 -37
63 -43 -4 -2 -33 -8 -63 -11 -66 -8 -168 -31 -230 -52 -58 -20 -160 -74 -160
-85 0 -5 -7 -9 -15 -9 -8 0 -15 -3 -15 -8 0 -4 -11 -19 -24 -34 -14 -14 -22
-29 -19 -32 4 -3 1 -6 -5 -6 -13 0 -41 -73 -46 -120 -3 -28 -10 -37 -42 -54
-21 -10 -59 -30 -84 -45 -25 -14 -48 -24 -52 -23 -5 1 -8 -3 -8 -8 0 -6 -7
-10 -15 -10 -8 0 -15 -4 -15 -10 0 -5 -5 -10 -11 -10 -6 0 -16 -6 -23 -12 -7
-7 -26 -22 -41 -33 -61 -42 -232 -225 -286 -306 -91 -135 -94 -111 29 -235
122 -124 151 -149 242 -217 36 -26 74 -55 85 -63 42 -32 288 -172 315 -179 3
-1 28 -13 55 -26 l50 -24 803 -3 803 -2 72 31 c263 113 467 252 676 459 96 95
135 141 124 149 -5 3 -14 17 -21 31 -40 79 -113 172 -212 270 -47 47 -94 92
-105 100 -76 58 -124 90 -133 90 -6 0 -12 3 -14 8 -1 4 -39 26 -83 49 -74 38
-79 43 -81 75 -3 48 -41 126 -87 175 -35 37 -177 124 -177 107 0 -3 -6 -2 -13
4 -7 6 -24 13 -37 16 -14 2 -32 7 -42 11 -9 3 -60 14 -113 23 -52 10 -97 21
-98 26 -1 4 16 15 38 24 120 46 285 187 372 317 84 124 143 278 165 429 12 83
12 84 49 100 42 19 84 58 107 101 14 24 17 64 19 204 2 99 -2 192 -8 214 -13
48 -87 125 -129 133 -34 7 -36 11 -14 42 16 23 47 106 70 187 19 67 28 167 28
295 -1 161 -17 236 -79 365 -45 93 -60 115 -109 167 -25 25 -28 33 -18 47 7 9
27 45 44 81 30 59 32 73 32 155 -1 69 -5 100 -22 135 -25 56 -76 108 -122 128
-38 15 -129 22 -136 10 -3 -5 -14 -8 -25 -8 -10 0 -27 -4 -37 -9 -41 -22 -125
-52 -179 -64 -77 -18 -150 -14 -269 14 -117 27 -105 24 -125 33 -9 4 -29 9
-45 11 -16 2 -29 5 -29 6 0 2 -14 4 -85 14 -63 10 -201 11 -206 3z"/>
</g>
</svg>
